<svg xmlns="http://www.w3.org/2000/svg" viewBox="0 0 166.09 118.64">
  <path fill="#ea5658" d="M0 35.42h77.84v29.24H0z" />
  <path fill="#e52421" d="M0 0h122.33v29.24H0z" />
  <path
    fill="#535252"
    d="M7.12 88H3.65v12.08H0V70.84h7.12c3.73 0 5.88 2 5.88 6V82c0 4-2.15 6-5.88 6zm2.19-11.32c0-1.67-.61-2.55-2.15-2.55H3.65v10.72h3.51c1.54 0 2.15-1 2.15-2.59zm16.21 23.41l-1.19-6.72h-5.18l-1.23 6.72h-3.47l5.49-29.25h3.86l5.45 29.25zM21.78 77.6l-2.06 12.52h4zm16.65 10.15h-2v12.34h-3.67V70.84h7.12c3.73 0 5.84 1.89 5.84 5.93v5c0 2.55-1.1 4.66-3.56 5.45l4 12.87H42.2zm1-3.17c1.67 0 2.59-1 2.59-2.81v-5.18c0-1.49-.61-2.46-2.19-2.46h-3.42v10.45zm10.68 15.51V70.84h3.64V96.7h7.6v3.39zm24.63 0l-1.18-6.72h-5.18l-1.23 6.72h-3.47l5.49-29.25H73l5.45 29.25zM71 77.6l-2 12.52h4zm26.32 22.49V77.65l-1 5.31L93 100.09h-3.5L86.16 83l-1-5.31v22.44H82V70.84h5.18L90.42 89l1 5.31.89-5.31 3.25-18.14h5.09v29.25zm8.47 0V70.84h11.46v3.34h-7.81v9.09h5.66v3.2h-5.66v10.28h7.81v3.34zm22.84-25.87v25.87H125V74.22h-5v-3.38h13.5v3.38zm16.86 25.87l-1.19-6.72h-5.18l-1.23 6.72h-3.47l5.49-29.25h3.87l5.44 29.25zm-3.73-22.49l-2.07 12.52h4zm16.64 10.15h-2v12.34h-3.64V70.84h7.11c3.73 0 5.84 1.89 5.84 5.93v5c0 2.55-1.1 4.66-3.56 5.45l4 12.87h-3.91zm1-3.17c1.67 0 2.6-1 2.6-2.81v-5.18c0-1.49-.62-2.46-2.2-2.46h-3.47v10.45zM2.84 116.36a1.59 1.59 0 01-1.59-1l-.18.94h-.8v-9.69h1.2v3.75a1.76 1.76 0 011.57-1c1 0 1.54.85 1.54 2v3.07a1.76 1.76 0 01-1.74 1.93zm.55-4.78c0-.83-.32-1.19-.91-1.19a1 1 0 00-1 1.11v2.77a1 1 0 001 1.12c.59 0 .94-.37.94-1.19zm4.7 5.12c-.31 1.2-.61 1.94-1.86 1.94h-.45v-1h.35c.59 0 .72-.2.84-.64l.12-.58-1.81-7H6.5l.82 3.77.29 1.52.3-1.52.82-3.77h1.21zm7.97-4.34h-1.44v3.89h-1.37v-9.69h2.81a2 2 0 012.27 2.24v1.34a2 2 0 01-2.27 2.22zm.89-3.6c0-.64-.24-1-.88-1h-1.45v3.43h1.45c.64 0 .88-.37.88-1zm6.32 7.49l-.51-2.37h-2.09l-.51 2.37h-1.34l2.2-9.69h1.45l2.2 9.69zm-1.55-7.52l-.8 4h1.6zm6.44 3.47h-.83v4H26v-9.69h2.79c1.57 0 2.28.79 2.28 2.17V110a2 2 0 01-1.47 2.1l1.59 4.19h-1.5zm.43-1.13a1 1 0 001-1.09v-1.28c0-.55-.22-1-.87-1h-1.39v3.32zm4.08 5.18v-9.69H34V115h3.1v1.26zm9.68 0l-.51-2.37h-2.09l-.51 2.37H37.9l2.2-9.69h1.45l2.2 9.69zm-1.55-7.52l-.8 4h1.6zm10.2 7.52v-7.55l-.39 1.85-1.33 5.7H48l-1.29-5.7-.41-1.85v7.55H45v-9.69h2l1.32 6 .39 1.85.4-1.86 1.29-6h1.92v9.69zm3.22 0v-9.69h4.51v1.25h-3.14v2.76h2.26v1.2h-2.26V115h3.14v1.26zm8.87-8.42v8.42h-1.38v-8.42h-2v-1.27h5.35v1.27zm3.33 8.42v-9.69h4.51v1.25h-3.14v2.76h2.27v1.2h-2.27V115h3.14v1.26zm8.3-4.05h-.82v4h-1.39v-9.69h2.8c1.57 0 2.28.79 2.28 2.17V110a2 2 0 01-1.47 2.1l1.59 4.19h-1.5zm.44-1.13c.68 0 1-.38 1-1.09v-1.28c0-.55-.22-1-.87-1H73.9v3.32z"
  />
</svg>
