<svg xmlns="http://www.w3.org/2000/svg" viewBox="0 0 282.82 170.08">
  <path
    fill="#227497"
    d="M79.9 60.19l-.35 5.51a32.17 32.17 0 01-22.86 28.79 32.17 32.17 0 01-22.85-28.78l-.35-5.51H0v49.69h132.28v-49.7z"
  />
  <path
    fill="#009cd9"
    d="M0 0v49.69h32.83L32 37.13q.86-.41 1.73-.8a56.83 56.83 0 0145.86 0q.87.39 1.73.8l-.79 12.57h127.34V0z"
  />
  <path
    fill="#003143"
    d="M12.46 149.56H6.57v20.52H.37v-49.7h12.09c6.34 0 10 3.36 10 10.22v8.81c0 6.79-3.65 10.15-10 10.15zm3.73-19.25c0-2.84-1-4.33-3.66-4.33h-6v18.21h6c2.61 0 3.66-1.64 3.66-4.4zm27.54 39.77l-2-11.42h-8.82l-2.09 11.42h-5.9l9.33-49.7h6.57l9.25 49.7zm-6.34-38.21l-3.51 21.27h6.87zm28.28 17.24h-3.43v21H56v-49.7h12.13c6.34 0 9.93 3.21 9.93 10.07V139c0 4.33-1.87 7.91-6 9.25 0-.07 6.72 21.87 6.72 21.87h-6.69zm1.79-5.37c2.84 0 4.4-1.64 4.4-4.78v-8.81c0-2.54-1-4.18-3.73-4.18h-5.9v17.76zm18.06 26.34v-49.7h6.19v44h12.91v5.75zm41.86 0l-2-11.42h-8.81l-2.09 11.42h-5.9l9.33-49.7h6.57l9.25 49.7zM121 131.87l-3.51 21.27h6.87zm44.74 38.21v-38.14l-1.64 9-5.67 29.1h-6L146.78 141l-1.64-9v38.13h-5.52v-49.7h8.81l5.6 30.9 1.64 9 1.57-9.1 5.52-30.82h8.66v49.7zm14.4 0v-49.7h19.48V126h-13.28v15.5H196v5.45h-9.63v17.46h13.28v5.67zm38.81-43.96v44h-6.19v-44h-8.43v-5.75h22.91v5.75zm14.47 43.96v-49.7h19.48V126h-13.28v15.5h9.63v5.45h-9.63v17.46h13.28v5.67zm36.35-20.97h-3.43v21h-6.19v-49.7h12.09c6.34 0 9.93 3.21 9.93 10.07V139c0 4.33-1.87 7.91-6 9.25 0-.07 6.72 21.87 6.72 21.87h-6.64zm1.79-5.37c2.84 0 4.4-1.64 4.4-4.78v-8.81c0-2.54-1-4.18-3.73-4.18h-5.9v17.76z"
  />
</svg>
